<svg id="svg" version="1.1" xmlns="http://www.w3.org/2000/svg" xmlns:xlink="http://www.w3.org/1999/xlink" width="400" height="132.5" viewBox="0, 0, 400,132.5"><g id="svgg"><path id="path0" d="M0.006 37.042 C 0.002 63.669,0.051 73.833,0.183 73.833 C 0.284 73.833,0.621 73.946,0.933 74.083 C 2.925 74.962,4.446 75.590,7.250 76.693 C 8.625 77.234,9.900 77.741,10.083 77.818 C 10.383 77.946,11.355 78.326,12.250 78.667 C 12.433 78.736,12.883 78.909,13.250 79.051 C 13.617 79.193,14.479 79.509,15.167 79.754 C 17.499 80.584,18.749 81.039,19.083 81.178 C 20.952 81.957,33.730 85.957,37.500 86.944 C 38.004 87.076,39.429 87.452,40.667 87.780 C 44.091 88.687,48.821 89.788,52.667 90.573 C 53.813 90.808,55.087 91.070,55.500 91.158 C 55.913 91.245,56.925 91.435,57.750 91.580 C 58.575 91.725,59.625 91.916,60.083 92.006 C 61.256 92.234,62.910 92.512,64.083 92.677 C 64.633 92.755,65.871 92.938,66.833 93.084 C 67.796 93.230,69.183 93.419,69.917 93.504 C 70.650 93.589,72.225 93.777,73.417 93.922 C 75.957 94.230,77.875 94.413,81.083 94.655 C 82.367 94.752,84.579 94.921,86.000 95.032 C 89.451 95.301,106.947 95.299,110.000 95.030 C 111.237 94.921,113.375 94.753,114.750 94.657 C 116.125 94.561,117.850 94.418,118.583 94.340 C 119.317 94.262,120.704 94.117,121.667 94.018 C 122.629 93.920,123.942 93.765,124.583 93.675 C 125.225 93.584,126.612 93.394,127.667 93.252 C 128.721 93.111,129.996 92.922,130.500 92.832 C 131.004 92.743,132.317 92.523,133.417 92.343 C 136.472 91.842,139.507 91.260,142.583 90.583 C 143.225 90.442,144.107 90.255,144.543 90.168 C 146.915 89.691,154.991 87.598,158.667 86.507 C 162.864 85.261,168.306 83.487,172.000 82.160 C 173.054 81.782,174.104 81.412,174.333 81.338 C 174.832 81.177,180.774 78.894,181.250 78.680 C 181.433 78.598,182.933 77.969,184.583 77.282 C 187.686 75.992,196.495 72.277,197.083 72.012 C 197.902 71.642,203.981 69.167,204.070 69.167 C 204.125 69.167,204.488 69.027,204.877 68.856 C 205.265 68.685,205.921 68.413,206.333 68.250 C 206.746 68.088,207.320 67.852,207.609 67.727 C 207.897 67.602,208.179 67.500,208.235 67.500 C 208.291 67.500,208.655 67.359,209.043 67.188 C 209.432 67.016,210.575 66.561,211.583 66.178 C 212.592 65.794,213.567 65.419,213.750 65.343 C 213.933 65.268,214.383 65.092,214.750 64.952 C 215.117 64.812,215.904 64.507,216.500 64.275 C 217.096 64.042,218.633 63.467,219.917 62.996 C 222.157 62.175,223.200 61.782,223.917 61.491 C 224.100 61.417,225.338 60.971,226.667 60.500 C 227.996 60.030,229.590 59.462,230.208 59.239 C 232.842 58.289,233.672 57.993,235.250 57.441 C 237.949 56.495,249.266 52.745,251.167 52.166 C 252.129 51.873,253.329 51.498,253.833 51.334 C 254.338 51.170,255.537 50.796,256.500 50.503 C 257.462 50.210,258.438 49.906,258.667 49.826 C 261.089 48.986,279.715 43.769,283.000 43.011 C 283.321 42.936,284.896 42.538,286.500 42.126 C 289.949 41.239,293.709 40.335,297.792 39.412 C 298.410 39.273,299.217 39.088,299.583 39.003 C 300.562 38.775,302.275 38.402,303.417 38.167 C 303.967 38.054,304.642 37.899,304.917 37.823 C 305.192 37.747,305.867 37.598,306.417 37.493 C 306.967 37.387,307.717 37.233,308.083 37.150 C 308.793 36.989,309.965 36.754,312.917 36.179 C 313.925 35.983,315.050 35.754,315.417 35.670 C 315.783 35.586,316.758 35.397,317.583 35.250 C 318.408 35.103,319.421 34.915,319.833 34.832 C 320.246 34.749,321.258 34.562,322.083 34.417 C 322.908 34.272,323.958 34.081,324.417 33.994 C 325.704 33.747,333.165 32.524,336.083 32.080 C 338.000 31.789,344.162 30.913,345.458 30.747 C 346.296 30.640,346.696 30.333,345.998 30.333 C 345.813 30.333,345.532 30.265,345.373 30.182 C 345.214 30.099,344.596 29.903,344.000 29.747 C 343.404 29.591,342.767 29.399,342.583 29.319 C 342.400 29.240,341.688 29.027,341.000 28.845 C 339.576 28.469,338.453 28.149,337.250 27.775 C 336.212 27.453,333.717 26.722,332.500 26.385 C 331.996 26.245,331.453 26.064,331.294 25.982 C 331.135 25.900,330.894 25.833,330.758 25.833 C 330.623 25.833,330.190 25.732,329.797 25.607 C 329.405 25.483,328.783 25.299,328.417 25.197 C 328.050 25.096,327.150 24.834,326.417 24.615 C 325.683 24.396,324.596 24.085,324.000 23.923 C 323.404 23.761,322.729 23.571,322.500 23.500 C 322.271 23.429,321.596 23.242,321.000 23.084 C 320.404 22.926,319.767 22.736,319.583 22.662 C 319.400 22.589,318.912 22.443,318.500 22.338 C 318.087 22.233,317.525 22.083,317.250 22.004 C 314.002 21.081,311.949 20.522,311.333 20.394 C 311.104 20.347,310.767 20.247,310.583 20.171 C 310.400 20.096,309.725 19.907,309.083 19.752 C 308.442 19.598,307.804 19.427,307.667 19.373 C 307.529 19.320,307.042 19.183,306.583 19.070 C 306.125 18.957,305.450 18.777,305.083 18.671 C 304.327 18.453,302.623 18.023,302.000 17.894 C 301.771 17.847,301.433 17.743,301.250 17.664 C 301.067 17.584,300.542 17.436,300.083 17.334 C 299.625 17.231,298.987 17.081,298.667 17.000 C 298.346 16.918,297.596 16.731,297.000 16.583 C 296.404 16.436,295.654 16.249,295.333 16.169 C 295.012 16.088,294.412 15.942,294.000 15.845 C 293.587 15.748,292.987 15.596,292.667 15.507 C 292.346 15.418,291.258 15.151,290.250 14.915 C 289.242 14.678,288.154 14.411,287.833 14.321 C 287.512 14.231,286.875 14.081,286.417 13.987 C 285.958 13.894,285.321 13.752,285.000 13.673 C 284.679 13.594,283.854 13.406,283.167 13.256 C 282.479 13.105,281.617 12.910,281.250 12.823 C 280.883 12.737,280.021 12.550,279.333 12.408 C 278.646 12.266,277.783 12.085,277.417 12.005 C 277.050 11.925,276.150 11.736,275.417 11.586 C 274.683 11.435,273.783 11.249,273.417 11.172 C 272.804 11.043,270.840 10.670,269.000 10.333 C 268.587 10.258,267.537 10.074,266.667 9.924 C 265.796 9.775,264.671 9.581,264.167 9.494 C 263.662 9.406,262.425 9.214,261.417 9.067 C 260.408 8.919,259.171 8.735,258.667 8.656 C 256.482 8.315,251.570 7.779,248.167 7.510 C 245.564 7.305,236.207 7.302,234.417 7.507 C 232.249 7.754,230.833 7.961,229.417 8.236 C 228.683 8.378,227.858 8.537,227.583 8.589 C 227.308 8.640,226.821 8.752,226.500 8.837 C 226.179 8.922,225.092 9.152,224.083 9.348 C 222.237 9.706,220.482 10.061,219.250 10.324 C 218.883 10.403,217.983 10.595,217.250 10.751 C 216.517 10.907,215.654 11.094,215.333 11.166 C 215.012 11.237,214.338 11.382,213.833 11.488 C 213.329 11.594,212.617 11.749,212.250 11.833 C 211.883 11.917,211.058 12.103,210.417 12.247 C 209.775 12.391,208.950 12.578,208.583 12.664 C 208.217 12.749,207.392 12.936,206.750 13.079 C 206.108 13.222,205.321 13.410,205.000 13.497 C 204.679 13.584,203.592 13.850,202.583 14.087 C 200.167 14.656,200.438 14.589,197.583 15.330 C 196.208 15.686,194.483 16.133,193.750 16.323 C 191.890 16.804,191.137 17.017,190.750 17.171 C 190.567 17.245,190.079 17.391,189.667 17.496 C 189.254 17.601,188.692 17.753,188.417 17.833 C 188.142 17.914,187.579 18.066,187.167 18.171 C 186.754 18.276,186.267 18.423,186.083 18.498 C 185.900 18.572,185.300 18.759,184.750 18.913 C 184.200 19.067,183.563 19.254,183.333 19.328 C 183.104 19.403,182.242 19.672,181.417 19.926 C 179.286 20.583,170.982 23.316,170.583 23.492 C 170.400 23.573,170.100 23.676,169.917 23.722 C 169.653 23.788,167.021 24.711,165.667 25.213 C 165.529 25.264,165.042 25.432,164.583 25.587 C 164.125 25.742,163.600 25.930,163.417 26.005 C 163.233 26.080,162.708 26.267,162.250 26.421 C 161.792 26.576,161.267 26.763,161.083 26.838 C 160.900 26.912,160.206 27.167,159.542 27.403 C 156.554 28.467,155.884 28.714,155.391 28.933 C 155.103 29.061,154.761 29.167,154.633 29.167 C 154.505 29.167,154.329 29.228,154.242 29.304 C 154.155 29.379,153.633 29.583,153.083 29.755 C 152.533 29.928,152.008 30.119,151.917 30.180 C 151.825 30.240,151.450 30.384,151.083 30.498 C 150.717 30.612,150.192 30.803,149.917 30.921 C 149.642 31.039,149.042 31.263,148.583 31.419 C 147.626 31.744,147.318 31.863,146.475 32.233 C 146.140 32.380,145.761 32.500,145.633 32.500 C 145.505 32.500,145.329 32.560,145.242 32.633 C 145.155 32.706,144.783 32.864,144.417 32.985 C 144.050 33.106,143.525 33.300,143.250 33.416 C 142.975 33.531,142.375 33.754,141.917 33.909 C 141.458 34.065,140.933 34.253,140.750 34.326 C 140.567 34.400,140.079 34.591,139.667 34.750 C 139.254 34.909,138.767 35.100,138.583 35.174 C 138.400 35.248,137.387 35.621,136.333 36.003 C 135.279 36.385,134.192 36.792,133.917 36.907 C 133.642 37.022,133.154 37.212,132.833 37.328 C 132.512 37.444,132.025 37.634,131.750 37.751 C 131.475 37.868,131.063 38.017,130.833 38.083 C 130.604 38.150,130.192 38.301,129.917 38.420 C 129.642 38.539,128.554 38.950,127.500 39.333 C 126.446 39.717,125.358 40.125,125.083 40.240 C 124.808 40.356,124.321 40.544,124.000 40.658 C 123.679 40.773,123.267 40.929,123.083 41.004 C 122.900 41.079,122.375 41.268,121.917 41.424 C 121.458 41.580,120.858 41.802,120.583 41.917 C 120.308 42.033,119.783 42.216,119.417 42.325 C 119.050 42.434,118.600 42.587,118.417 42.666 C 117.794 42.932,113.805 44.167,113.566 44.167 C 113.436 44.167,113.199 44.241,113.039 44.332 C 112.745 44.500,111.225 44.918,108.667 45.535 C 107.888 45.723,107.100 45.935,106.917 46.007 C 106.606 46.128,105.631 46.341,103.833 46.680 C 103.421 46.757,102.483 46.937,101.750 47.080 C 91.419 49.086,80.490 49.384,70.667 47.927 C 68.118 47.549,65.648 47.102,64.667 46.841 C 64.346 46.756,63.521 46.560,62.833 46.405 C 62.146 46.251,61.433 46.066,61.250 45.995 C 61.067 45.923,60.429 45.741,59.833 45.591 C 59.237 45.440,58.600 45.255,58.417 45.179 C 58.233 45.103,57.633 44.916,57.083 44.762 C 56.533 44.608,55.933 44.416,55.750 44.336 C 55.567 44.255,54.667 43.916,53.750 43.582 C 52.833 43.247,51.858 42.876,51.583 42.757 C 51.308 42.638,50.671 42.372,50.167 42.168 C 48.521 41.500,47.788 41.158,45.000 39.758 C 41.807 38.154,40.426 37.414,39.808 36.979 C 39.564 36.807,39.319 36.667,39.263 36.667 C 39.097 36.667,35.588 34.442,35.528 34.299 C 35.497 34.226,35.409 34.167,35.332 34.167 C 35.154 34.167,33.103 32.794,33.028 32.625 C 32.997 32.556,32.907 32.500,32.827 32.500 C 32.691 32.500,30.367 30.858,28.935 29.750 C 27.495 28.636,24.745 26.441,24.667 26.344 C 24.621 26.287,23.889 25.656,23.040 24.941 C 22.192 24.226,21.217 23.377,20.874 23.053 C 20.531 22.728,19.987 22.236,19.667 21.959 C 18.280 20.760,12.665 15.120,10.582 12.833 C 8.511 10.560,5.659 7.283,4.527 5.875 C 4.220 5.494,3.826 5.017,3.651 4.815 C 3.476 4.613,2.714 3.661,1.958 2.699 C 1.202 1.737,0.455 0.792,0.297 0.600 C 0.027 0.269,0.011 2.248,0.006 37.042 " stroke="none" fill="#a4e3eb" fill-rule="evenodd"></path><path id="path1" d="M398.978 26.745 C 398.935 26.788,396.166 26.902,392.825 27.000 C 381.844 27.319,371.041 28.023,360.750 29.091 C 359.283 29.243,357.483 29.429,356.750 29.505 C 355.409 29.643,352.367 30.007,349.583 30.360 C 348.758 30.465,347.708 30.565,347.250 30.582 C 346.792 30.599,346.004 30.669,345.500 30.736 C 343.762 30.969,337.746 31.828,336.083 32.080 C 333.165 32.524,325.704 33.747,324.417 33.994 C 323.958 34.081,322.908 34.272,322.083 34.417 C 321.258 34.562,320.246 34.749,319.833 34.832 C 319.421 34.915,318.408 35.103,317.583 35.250 C 316.758 35.397,315.783 35.586,315.417 35.670 C 315.050 35.754,313.925 35.983,312.917 36.179 C 309.965 36.754,308.793 36.989,308.083 37.150 C 307.717 37.233,306.967 37.387,306.417 37.493 C 305.867 37.598,305.192 37.747,304.917 37.823 C 304.642 37.899,303.967 38.054,303.417 38.167 C 302.078 38.442,299.363 39.044,297.417 39.497 C 297.050 39.582,296.262 39.763,295.667 39.898 C 293.194 40.460,289.234 41.422,286.500 42.126 C 284.896 42.538,283.321 42.936,283.000 43.011 C 279.715 43.769,261.089 48.986,258.667 49.826 C 258.438 49.906,257.462 50.210,256.500 50.503 C 255.537 50.796,254.338 51.170,253.833 51.334 C 253.329 51.498,252.129 51.873,251.167 52.166 C 249.266 52.745,237.949 56.495,235.250 57.441 C 233.672 57.993,232.842 58.289,230.208 59.239 C 229.590 59.462,227.996 60.030,226.667 60.500 C 225.338 60.971,224.100 61.417,223.917 61.491 C 223.200 61.782,222.157 62.175,219.917 62.996 C 218.633 63.467,217.096 64.042,216.500 64.275 C 215.904 64.507,215.117 64.812,214.750 64.952 C 214.383 65.092,213.933 65.268,213.750 65.343 C 213.567 65.419,212.592 65.794,211.583 66.178 C 210.575 66.561,209.432 67.016,209.043 67.188 C 208.655 67.359,208.291 67.500,208.235 67.500 C 208.179 67.500,207.897 67.602,207.609 67.727 C 207.320 67.852,206.746 68.088,206.333 68.250 C 205.921 68.413,205.265 68.685,204.877 68.856 C 204.488 69.027,204.125 69.167,204.070 69.167 C 203.981 69.167,197.902 71.642,197.083 72.012 C 196.495 72.277,187.686 75.992,184.583 77.282 C 182.933 77.969,181.433 78.598,181.250 78.680 C 180.774 78.894,174.832 81.177,174.333 81.338 C 174.104 81.412,173.054 81.782,172.000 82.160 C 168.306 83.487,162.864 85.261,158.667 86.507 C 154.991 87.598,146.915 89.691,144.543 90.168 C 144.107 90.255,143.225 90.442,142.583 90.583 C 139.507 91.260,136.472 91.842,133.417 92.343 C 132.317 92.523,131.004 92.743,130.500 92.832 C 129.996 92.922,128.721 93.111,127.667 93.252 C 126.612 93.394,125.225 93.584,124.583 93.675 C 123.942 93.765,122.629 93.920,121.667 94.018 C 120.704 94.117,119.317 94.262,118.583 94.340 C 117.850 94.418,116.125 94.561,114.750 94.657 C 113.375 94.753,111.237 94.921,110.000 95.030 C 106.947 95.299,89.451 95.301,86.000 95.032 C 84.579 94.921,82.367 94.752,81.083 94.655 C 77.875 94.413,75.957 94.230,73.417 93.922 C 72.225 93.777,70.650 93.589,69.917 93.504 C 69.183 93.419,67.796 93.230,66.833 93.084 C 65.871 92.938,64.633 92.755,64.083 92.677 C 62.910 92.512,61.256 92.234,60.083 92.006 C 59.625 91.916,58.575 91.725,57.750 91.580 C 56.925 91.435,55.913 91.245,55.500 91.158 C 55.087 91.070,53.813 90.808,52.667 90.573 C 48.821 89.788,44.091 88.687,40.667 87.780 C 39.429 87.452,38.004 87.076,37.500 86.944 C 33.730 85.957,20.952 81.957,19.083 81.178 C 18.749 81.039,17.499 80.584,15.167 79.754 C 14.479 79.509,13.617 79.193,13.250 79.051 C 12.883 78.909,12.433 78.736,12.250 78.667 C 11.355 78.326,10.383 77.946,10.083 77.818 C 9.900 77.741,8.625 77.234,7.250 76.693 C 4.483 75.605,2.730 74.881,0.975 74.103 C 0.640 73.955,0.284 73.833,0.183 73.833 C 0.051 73.833,0.000 81.940,0.000 103.083 L 0.000 132.333 200.000 132.333 L 400.000 132.333 400.000 79.500 L 400.000 26.667 399.528 26.667 C 399.268 26.667,399.020 26.702,398.978 26.745 " stroke="none" fill="#c4e4dc" fill-rule="evenodd"></path><path id="path2" d="M0.333 0.236 C 0.333 0.366,0.392 0.497,0.464 0.528 C 0.536 0.558,1.116 1.258,1.753 2.083 C 2.390 2.908,2.987 3.665,3.081 3.764 C 3.174 3.864,3.512 4.272,3.833 4.671 C 5.200 6.373,6.880 8.358,7.990 9.583 C 8.239 9.858,9.072 10.796,9.840 11.667 C 15.062 17.586,23.143 25.156,28.250 28.909 C 28.617 29.179,28.954 29.450,29.000 29.512 C 29.046 29.574,30.321 30.497,31.833 31.563 C 33.346 32.629,34.674 33.576,34.785 33.667 C 34.895 33.759,35.032 33.833,35.087 33.833 C 35.143 33.833,35.428 34.011,35.719 34.229 C 36.247 34.623,39.919 36.835,41.667 37.812 C 43.897 39.058,48.415 41.221,50.750 42.159 C 51.483 42.454,52.233 42.764,52.417 42.848 C 52.600 42.932,53.500 43.269,54.417 43.596 C 59.958 45.574,64.241 46.668,70.417 47.681 C 77.772 48.889,88.077 48.888,96.833 47.680 C 100.616 47.157,105.983 46.062,109.917 45.009 C 113.392 44.078,121.110 41.597,121.873 41.164 C 122.032 41.074,122.298 41.000,122.464 41.000 C 122.631 41.000,122.838 40.937,122.925 40.861 C 123.012 40.784,123.458 40.590,123.917 40.428 C 124.375 40.267,124.986 40.030,125.275 39.901 C 125.564 39.772,125.905 39.667,126.034 39.667 C 126.162 39.667,126.338 39.607,126.425 39.534 C 126.512 39.461,126.883 39.302,127.250 39.182 C 127.617 39.061,128.142 38.865,128.417 38.748 C 128.692 38.630,129.779 38.217,130.833 37.829 C 131.887 37.442,132.975 37.033,133.250 36.921 C 133.525 36.809,134.012 36.623,134.333 36.508 C 134.654 36.394,135.067 36.239,135.250 36.164 C 135.433 36.089,136.446 35.712,137.500 35.327 C 138.554 34.941,139.642 34.533,139.917 34.421 C 140.192 34.309,140.679 34.123,141.000 34.008 C 141.321 33.894,141.733 33.739,141.917 33.664 C 142.100 33.589,143.112 33.212,144.167 32.827 C 145.221 32.441,146.308 32.031,146.583 31.915 C 146.858 31.799,147.271 31.650,147.500 31.583 C 147.729 31.517,148.142 31.366,148.417 31.247 C 148.692 31.128,149.779 30.718,150.833 30.336 C 151.887 29.954,152.900 29.578,153.083 29.501 C 153.267 29.423,153.979 29.161,154.667 28.918 C 155.354 28.674,156.179 28.374,156.500 28.250 C 157.058 28.035,157.909 27.727,160.667 26.741 C 161.354 26.495,162.067 26.234,162.250 26.160 C 162.433 26.086,162.958 25.900,163.417 25.745 C 163.875 25.591,164.400 25.401,164.583 25.324 C 164.980 25.156,167.815 24.179,169.917 23.486 C 170.742 23.214,171.567 22.924,171.750 22.843 C 172.091 22.690,178.623 20.555,181.167 19.764 C 184.438 18.747,187.269 17.893,188.500 17.552 C 194.538 15.878,196.007 15.488,199.750 14.565 C 201.400 14.158,203.012 13.753,203.333 13.666 C 203.654 13.578,204.442 13.389,205.083 13.247 C 205.725 13.104,206.512 12.920,206.833 12.837 C 207.154 12.754,207.979 12.562,208.667 12.411 C 209.354 12.259,210.179 12.066,210.500 11.980 C 210.821 11.894,211.796 11.674,212.667 11.490 C 215.288 10.937,216.714 10.636,217.417 10.489 C 217.783 10.411,218.646 10.229,219.333 10.082 C 220.021 9.935,220.921 9.749,221.333 9.667 C 222.394 9.457,224.628 8.995,225.417 8.822 C 225.783 8.742,226.683 8.558,227.417 8.414 C 228.150 8.270,229.088 8.082,229.500 7.996 C 234.031 7.053,243.395 6.736,248.917 7.338 C 249.742 7.428,251.279 7.582,252.333 7.680 C 253.387 7.779,254.775 7.926,255.417 8.007 C 257.783 8.307,260.444 8.670,261.417 8.824 C 263.797 9.203,265.803 9.535,266.500 9.664 C 266.912 9.741,267.925 9.923,268.750 10.069 C 270.305 10.343,270.995 10.474,273.250 10.922 C 273.983 11.067,274.921 11.253,275.333 11.335 C 275.746 11.417,276.646 11.605,277.333 11.753 C 278.021 11.901,278.883 12.084,279.250 12.161 C 279.617 12.238,280.479 12.425,281.167 12.578 C 281.854 12.730,282.717 12.918,283.083 12.994 C 283.450 13.071,284.275 13.259,284.917 13.412 C 285.558 13.565,286.383 13.760,286.750 13.845 C 287.117 13.930,287.904 14.116,288.500 14.258 C 289.096 14.401,289.883 14.588,290.250 14.675 C 291.929 15.071,292.968 15.326,293.583 15.491 C 293.950 15.589,294.700 15.776,295.250 15.906 C 295.800 16.035,297.000 16.341,297.917 16.586 C 298.833 16.830,299.883 17.096,300.250 17.178 C 300.617 17.259,302.042 17.632,303.417 18.006 C 304.792 18.380,306.592 18.864,307.417 19.082 C 308.983 19.495,311.096 20.071,313.500 20.741 C 314.279 20.958,315.629 21.334,316.500 21.575 C 317.371 21.816,318.496 22.131,319.000 22.275 C 319.504 22.418,320.160 22.603,320.458 22.685 C 320.756 22.766,321.244 22.905,321.542 22.993 C 321.840 23.080,322.496 23.263,323.000 23.399 C 323.504 23.535,324.592 23.844,325.417 24.087 C 326.242 24.329,327.142 24.585,327.417 24.655 C 327.692 24.724,328.442 24.939,329.083 25.131 C 329.725 25.324,330.700 25.604,331.250 25.755 C 331.800 25.905,332.380 26.096,332.539 26.181 C 332.699 26.265,332.934 26.333,333.062 26.333 C 333.304 26.333,334.833 26.769,335.417 27.004 C 335.600 27.078,336.087 27.224,336.500 27.329 C 336.912 27.434,337.475 27.584,337.750 27.662 C 338.334 27.829,339.875 28.284,342.000 28.917 C 342.504 29.067,343.142 29.254,343.417 29.333 C 343.692 29.412,344.329 29.600,344.833 29.750 C 347.373 30.507,346.881 30.473,349.917 30.099 C 352.966 29.724,354.389 29.559,356.417 29.346 C 357.333 29.250,358.721 29.096,359.500 29.005 C 361.596 28.759,366.239 28.336,372.333 27.835 C 376.137 27.522,381.351 27.224,389.750 26.838 C 391.675 26.749,394.769 26.674,396.625 26.672 L 400.000 26.667 400.000 13.333 L 400.000 0.000 200.167 0.000 C 27.873 0.000,0.333 0.033,0.333 0.236 " stroke="none" fill="#fbfcfc" fill-rule="evenodd"></path><path id="path3" d="M1.000 1.500 C 1.290 1.867,1.566 2.167,1.611 2.167 C 1.657 2.167,1.457 1.867,1.167 1.500 C 0.876 1.133,0.601 0.833,0.555 0.833 C 0.509 0.833,0.710 1.133,1.000 1.500 M2.165 2.998 C 2.454 3.363,2.778 3.716,2.884 3.782 C 2.991 3.847,2.789 3.548,2.436 3.117 C 2.082 2.686,1.758 2.333,1.716 2.333 C 1.673 2.333,1.875 2.632,2.165 2.998 M3.284 4.411 C 3.449 4.638,3.653 4.825,3.737 4.828 C 3.822 4.831,3.715 4.646,3.500 4.417 C 3.000 3.885,2.899 3.882,3.284 4.411 M4.925 6.328 C 5.280 6.846,6.166 7.841,6.160 7.714 C 6.157 7.642,5.838 7.243,5.452 6.828 C 5.066 6.412,4.829 6.187,4.925 6.328 M238.375 7.291 C 239.819 7.319,242.181 7.319,243.625 7.291 C 245.069 7.264,243.887 7.241,241.000 7.241 C 238.112 7.241,236.931 7.264,238.375 7.291 M234.542 7.448 C 234.702 7.490,234.965 7.490,235.125 7.448 C 235.285 7.406,235.154 7.372,234.833 7.372 C 234.512 7.372,234.381 7.406,234.542 7.448 M247.125 7.451 C 247.331 7.491,247.669 7.491,247.875 7.451 C 248.081 7.411,247.912 7.379,247.500 7.379 C 247.088 7.379,246.919 7.411,247.125 7.451 M232.083 7.667 L 231.583 7.794 232.083 7.797 C 232.358 7.799,232.771 7.740,233.000 7.667 L 233.417 7.533 233.000 7.536 C 232.771 7.538,232.358 7.597,232.083 7.667 M250.250 7.667 C 250.924 7.816,252.114 7.886,251.986 7.771 C 251.948 7.736,251.392 7.666,250.750 7.614 C 249.853 7.542,249.738 7.555,250.250 7.667 M230.000 8.000 C 229.423 8.121,229.422 8.123,229.917 8.142 C 230.192 8.153,230.529 8.089,230.667 8.000 C 230.944 7.821,230.852 7.821,230.000 8.000 M253.417 7.996 C 253.923 8.129,255.447 8.217,255.319 8.106 C 255.281 8.073,254.725 8.005,254.083 7.955 C 253.376 7.900,253.113 7.916,253.417 7.996 M6.690 8.458 C 6.921 8.710,7.722 9.610,8.471 10.457 C 9.220 11.304,9.833 11.955,9.833 11.903 C 9.833 11.776,6.473 8.000,6.360 8.000 C 6.311 8.000,6.460 8.206,6.690 8.458 M227.500 8.500 C 227.165 8.607,227.149 8.634,227.417 8.638 C 227.600 8.641,227.900 8.579,228.083 8.500 C 228.508 8.317,228.070 8.317,227.500 8.500 M257.667 8.492 C 258.083 8.633,259.117 8.722,258.986 8.605 C 258.948 8.571,258.542 8.499,258.083 8.446 C 257.521 8.382,257.386 8.396,257.667 8.492 M225.685 8.847 C 225.283 8.926,224.911 9.034,224.858 9.086 C 224.719 9.225,226.204 8.981,226.500 8.816 C 226.797 8.650,226.658 8.656,225.685 8.847 M259.833 8.818 C 260.063 8.889,260.700 8.991,261.250 9.045 C 261.805 9.100,262.065 9.087,261.833 9.016 C 261.604 8.945,260.967 8.842,260.417 8.788 C 259.861 8.733,259.602 8.746,259.833 8.818 M223.417 9.333 C 222.992 9.516,223.430 9.516,224.000 9.333 C 224.335 9.226,224.351 9.199,224.083 9.195 C 223.900 9.192,223.600 9.255,223.417 9.333 M263.250 9.326 C 263.570 9.471,264.463 9.565,264.319 9.439 C 264.281 9.405,263.950 9.332,263.583 9.276 C 263.119 9.205,263.018 9.220,263.250 9.326 M265.167 9.658 C 265.583 9.800,266.617 9.888,266.486 9.771 C 266.448 9.737,266.042 9.666,265.583 9.613 C 265.021 9.548,264.886 9.563,265.167 9.658 M219.500 10.167 C 219.157 10.277,219.142 10.303,219.417 10.314 C 219.600 10.322,219.862 10.256,220.000 10.167 C 220.292 9.978,220.089 9.978,219.500 10.167 M268.083 10.159 C 268.403 10.304,269.296 10.398,269.153 10.272 C 269.115 10.238,268.783 10.165,268.417 10.109 C 267.952 10.039,267.851 10.054,268.083 10.159 M217.083 10.674 C 216.851 10.780,216.952 10.795,217.417 10.724 C 217.783 10.668,218.115 10.595,218.153 10.561 C 218.296 10.435,217.403 10.529,217.083 10.674 M215.500 11.000 C 215.165 11.107,215.149 11.134,215.417 11.138 C 215.600 11.141,215.900 11.079,216.083 11.000 C 216.508 10.817,216.070 10.817,215.500 11.000 M272.583 11.000 C 272.767 11.079,273.067 11.141,273.250 11.138 C 273.518 11.134,273.502 11.107,273.167 11.000 C 272.597 10.817,272.159 10.817,272.583 11.000 M274.167 11.336 C 274.304 11.423,274.635 11.496,274.903 11.497 C 275.547 11.501,275.407 11.405,274.583 11.278 C 274.129 11.209,273.996 11.227,274.167 11.336 M213.250 11.508 C 213.018 11.613,213.119 11.628,213.583 11.557 C 213.950 11.501,214.281 11.428,214.319 11.395 C 214.463 11.268,213.570 11.363,213.250 11.508 M211.667 11.833 C 211.332 11.941,211.315 11.968,211.583 11.972 C 211.767 11.974,212.067 11.912,212.250 11.833 C 212.675 11.651,212.237 11.651,211.667 11.833 M276.583 11.826 C 276.903 11.971,277.796 12.065,277.653 11.939 C 277.615 11.905,277.283 11.832,276.917 11.776 C 276.452 11.705,276.351 11.720,276.583 11.826 M278.167 12.164 C 278.304 12.254,278.598 12.329,278.819 12.331 C 279.354 12.334,279.219 12.239,278.500 12.108 C 278.090 12.032,277.991 12.049,278.167 12.164 M10.833 13.083 C 11.899 14.266,15.359 17.821,15.299 17.672 C 15.272 17.604,14.088 16.356,12.667 14.899 C 11.246 13.442,10.421 12.625,10.833 13.083 M208.000 12.667 C 207.665 12.774,207.649 12.801,207.917 12.805 C 208.100 12.808,208.400 12.745,208.583 12.667 C 209.008 12.484,208.570 12.484,208.000 12.667 M280.583 12.667 C 280.767 12.745,281.029 12.810,281.167 12.810 C 281.324 12.810,281.293 12.757,281.083 12.667 C 280.900 12.588,280.637 12.523,280.500 12.523 C 280.342 12.523,280.373 12.576,280.583 12.667 M282.000 12.998 C 282.137 13.088,282.431 13.163,282.653 13.164 C 283.188 13.168,283.052 13.073,282.333 12.941 C 281.923 12.866,281.824 12.882,282.000 12.998 M204.500 13.500 C 204.157 13.610,204.142 13.636,204.417 13.648 C 204.600 13.655,204.862 13.589,205.000 13.500 C 205.292 13.311,205.089 13.311,204.500 13.500 M284.250 13.500 C 284.433 13.579,284.733 13.641,284.917 13.638 C 285.185 13.634,285.168 13.607,284.833 13.500 C 284.263 13.317,283.825 13.317,284.250 13.500 M285.667 13.831 C 285.804 13.921,286.098 13.996,286.319 13.997 C 286.854 14.001,286.719 13.906,286.000 13.774 C 285.590 13.699,285.491 13.716,285.667 13.831 M202.417 14.000 C 201.992 14.183,202.430 14.183,203.000 14.000 C 203.335 13.893,203.351 13.866,203.083 13.862 C 202.900 13.859,202.600 13.921,202.417 14.000 M201.083 14.333 C 200.873 14.424,200.842 14.477,201.000 14.477 C 201.137 14.477,201.400 14.412,201.583 14.333 C 201.793 14.243,201.824 14.190,201.667 14.190 C 201.529 14.190,201.267 14.255,201.083 14.333 M287.833 14.333 C 287.971 14.422,288.233 14.491,288.417 14.486 L 288.750 14.477 288.417 14.333 C 287.918 14.119,287.502 14.119,287.833 14.333 M199.667 14.667 C 199.323 14.777,199.309 14.803,199.583 14.814 C 199.767 14.822,200.029 14.756,200.167 14.667 C 200.459 14.478,200.256 14.478,199.667 14.667 M197.750 15.167 C 197.540 15.257,197.509 15.310,197.667 15.310 C 197.804 15.310,198.067 15.245,198.250 15.167 C 198.460 15.076,198.491 15.023,198.333 15.023 C 198.196 15.023,197.933 15.088,197.750 15.167 M291.250 15.167 C 291.433 15.245,291.733 15.308,291.917 15.305 C 292.185 15.301,292.168 15.274,291.833 15.167 C 291.263 14.984,290.825 14.984,291.250 15.167 M196.083 15.590 C 195.426 15.817,195.425 15.819,196.000 15.722 C 196.680 15.607,197.375 15.353,197.000 15.357 C 196.862 15.358,196.450 15.463,196.083 15.590 M292.667 15.480 C 292.804 15.557,293.179 15.667,293.500 15.724 C 293.851 15.786,293.984 15.772,293.833 15.687 C 293.696 15.609,293.321 15.499,293.000 15.442 C 292.649 15.380,292.516 15.395,292.667 15.480 M294.667 16.000 C 294.804 16.089,295.067 16.157,295.250 16.152 L 295.583 16.143 295.250 16.000 C 294.752 15.786,294.335 15.786,294.667 16.000 M296.000 16.326 C 296.137 16.419,296.394 16.496,296.569 16.497 C 296.996 16.501,296.863 16.405,296.250 16.268 C 295.885 16.187,295.817 16.202,296.000 16.326 M298.000 16.826 C 298.137 16.919,298.394 16.996,298.569 16.997 C 298.996 17.001,298.863 16.905,298.250 16.768 C 297.885 16.687,297.817 16.702,298.000 16.826 M299.333 17.159 C 299.471 17.252,299.727 17.329,299.903 17.331 C 300.329 17.334,300.196 17.239,299.583 17.102 C 299.218 17.020,299.151 17.036,299.333 17.159 M301.250 17.667 C 301.307 17.758,301.517 17.828,301.718 17.822 C 302.070 17.810,302.071 17.805,301.750 17.667 C 301.291 17.470,301.128 17.470,301.250 17.667 M187.190 18.025 C 186.882 18.113,186.661 18.217,186.699 18.255 C 186.784 18.339,188.000 18.015,188.000 17.909 C 188.000 17.811,187.868 17.830,187.190 18.025 M302.500 17.992 C 302.637 18.085,302.894 18.163,303.069 18.164 C 303.496 18.168,303.363 18.072,302.750 17.935 C 302.385 17.853,302.317 17.869,302.500 17.992 M17.583 20.000 C 18.497 20.917,19.281 21.667,19.327 21.667 C 19.373 21.667,18.663 20.917,17.750 20.000 C 16.837 19.083,16.052 18.333,16.006 18.333 C 15.960 18.333,16.670 19.083,17.583 20.000 M305.667 18.809 C 305.804 18.889,306.142 19.004,306.417 19.063 C 306.737 19.132,306.827 19.119,306.667 19.025 C 306.529 18.944,306.192 18.830,305.917 18.770 C 305.597 18.701,305.507 18.715,305.667 18.809 M309.014 19.727 C 309.052 19.759,309.308 19.837,309.583 19.898 C 309.948 19.980,310.016 19.964,309.833 19.841 C 309.608 19.689,308.847 19.582,309.014 19.727 M310.583 20.167 C 310.640 20.258,310.851 20.328,311.052 20.322 C 311.404 20.310,311.405 20.305,311.083 20.167 C 310.625 19.970,310.461 19.970,310.583 20.167 M311.833 20.475 C 311.971 20.556,312.308 20.670,312.583 20.730 C 312.903 20.799,312.993 20.785,312.833 20.691 C 312.696 20.611,312.358 20.496,312.083 20.437 C 311.763 20.368,311.673 20.381,311.833 20.475 M176.583 21.286 C 176.400 21.330,176.180 21.432,176.095 21.513 C 176.009 21.594,176.188 21.589,176.492 21.502 C 177.351 21.256,177.424 21.083,176.583 21.286 M174.083 22.119 C 173.900 22.163,173.680 22.265,173.595 22.347 C 173.509 22.428,173.688 22.423,173.992 22.336 C 174.851 22.089,174.924 21.917,174.083 22.119 M318.014 22.227 C 318.052 22.259,318.308 22.337,318.583 22.398 C 318.948 22.480,319.016 22.464,318.833 22.341 C 318.608 22.189,317.847 22.082,318.014 22.227 M171.417 23.089 C 171.000 23.290,170.986 23.313,171.333 23.228 C 171.806 23.113,172.336 22.842,172.083 22.846 C 171.992 22.847,171.692 22.957,171.417 23.089 M321.250 23.167 C 321.433 23.245,321.696 23.310,321.833 23.310 C 321.991 23.310,321.960 23.257,321.750 23.167 C 321.567 23.088,321.304 23.023,321.167 23.023 C 321.009 23.023,321.040 23.076,321.250 23.167 M21.833 23.917 C 22.144 24.238,22.436 24.500,22.482 24.500 C 22.528 24.500,22.311 24.238,22.000 23.917 C 21.689 23.596,21.397 23.333,21.351 23.333 C 21.305 23.333,21.522 23.596,21.833 23.917 M322.500 23.492 C 322.637 23.585,322.894 23.663,323.069 23.664 C 323.496 23.668,323.363 23.572,322.750 23.435 C 322.385 23.353,322.317 23.369,322.500 23.492 M327.083 24.833 C 327.267 24.912,327.529 24.977,327.667 24.977 C 327.824 24.977,327.793 24.924,327.583 24.833 C 327.400 24.755,327.137 24.690,327.000 24.690 C 326.842 24.690,326.873 24.743,327.083 24.833 M328.333 25.159 C 328.471 25.252,328.727 25.329,328.903 25.331 C 329.329 25.334,329.196 25.239,328.583 25.102 C 328.218 25.020,328.151 25.036,328.333 25.159 M164.250 25.589 C 163.833 25.790,163.819 25.813,164.167 25.728 C 164.639 25.613,165.170 25.342,164.917 25.346 C 164.825 25.347,164.525 25.457,164.250 25.589 M329.681 25.560 C 329.719 25.593,329.975 25.670,330.250 25.732 C 330.615 25.813,330.683 25.798,330.500 25.674 C 330.275 25.522,329.513 25.416,329.681 25.560 M161.917 26.423 C 161.500 26.623,161.486 26.646,161.833 26.562 C 162.306 26.446,162.836 26.176,162.583 26.179 C 162.492 26.181,162.192 26.290,161.917 26.423 M25.286 26.866 C 26.291 27.716,26.495 27.812,25.672 27.048 C 25.257 26.662,24.858 26.343,24.786 26.340 C 24.714 26.336,24.939 26.573,25.286 26.866 M334.083 26.833 C 334.267 26.912,334.529 26.977,334.667 26.977 C 334.824 26.977,334.793 26.924,334.583 26.833 C 334.400 26.755,334.137 26.690,334.000 26.690 C 333.842 26.690,333.873 26.743,334.083 26.833 M397.628 26.787 C 397.928 26.825,398.378 26.824,398.628 26.786 C 398.878 26.748,398.633 26.717,398.083 26.718 C 397.533 26.719,397.328 26.750,397.628 26.787 M393.875 26.955 C 394.219 26.991,394.781 26.991,395.125 26.955 C 395.469 26.919,395.188 26.889,394.500 26.889 C 393.813 26.889,393.531 26.919,393.875 26.955 M335.167 27.145 C 335.304 27.228,335.679 27.342,336.000 27.398 C 336.394 27.468,336.475 27.455,336.250 27.359 C 335.735 27.138,334.871 26.968,335.167 27.145 M384.877 27.286 C 385.131 27.325,385.506 27.324,385.711 27.284 C 385.916 27.244,385.708 27.213,385.250 27.214 C 384.792 27.216,384.624 27.248,384.877 27.286 M376.542 27.782 C 376.702 27.823,376.965 27.823,377.125 27.782 C 377.285 27.740,377.154 27.705,376.833 27.705 C 376.512 27.705,376.381 27.740,376.542 27.782 M26.876 28.113 C 27.180 28.458,28.667 29.571,28.667 29.454 C 28.667 29.417,28.198 29.026,27.625 28.584 C 27.052 28.143,26.715 27.931,26.876 28.113 M338.000 27.979 C 338.137 28.061,338.512 28.175,338.833 28.232 C 339.227 28.301,339.308 28.289,339.083 28.192 C 338.568 27.972,337.704 27.801,338.000 27.979 M371.542 28.115 C 371.702 28.157,371.965 28.157,372.125 28.115 C 372.285 28.073,372.154 28.039,371.833 28.039 C 371.512 28.039,371.381 28.073,371.542 28.115 M339.667 28.492 C 339.804 28.585,340.060 28.663,340.236 28.664 C 340.663 28.668,340.529 28.572,339.917 28.435 C 339.552 28.353,339.484 28.369,339.667 28.492 M155.083 28.923 C 154.665 29.124,154.651 29.147,155.000 29.063 C 155.229 29.008,155.488 28.896,155.575 28.815 C 155.791 28.613,155.672 28.639,155.083 28.923 M29.031 29.772 C 29.330 30.106,31.333 31.559,31.333 31.442 C 31.333 31.404,30.752 30.942,30.042 30.415 C 29.331 29.889,28.876 29.599,29.031 29.772 M152.750 29.756 C 152.333 29.957,152.319 29.980,152.667 29.895 C 153.139 29.779,153.670 29.509,153.417 29.513 C 153.325 29.514,153.025 29.623,152.750 29.756 M151.417 30.256 C 150.998 30.458,150.984 30.480,151.333 30.396 C 151.563 30.341,151.821 30.229,151.908 30.148 C 152.124 29.946,152.006 29.972,151.417 30.256 M148.250 31.423 C 147.833 31.623,147.819 31.646,148.167 31.562 C 148.639 31.446,149.170 31.176,148.917 31.179 C 148.825 31.181,148.525 31.290,148.250 31.423 M32.077 32.037 C 32.355 32.287,32.650 32.493,32.731 32.496 C 32.812 32.498,32.662 32.337,32.397 32.137 C 31.659 31.579,31.516 31.534,32.077 32.037 M146.083 32.256 C 145.665 32.458,145.651 32.480,146.000 32.396 C 146.229 32.341,146.488 32.229,146.575 32.148 C 146.791 31.946,146.672 31.972,146.083 32.256 M133.583 36.923 C 133.165 37.124,133.151 37.147,133.500 37.063 C 133.729 37.008,133.988 36.896,134.075 36.815 C 134.291 36.613,134.172 36.639,133.583 36.923 M131.417 37.756 C 130.998 37.958,130.984 37.980,131.333 37.896 C 131.563 37.841,131.821 37.729,131.908 37.648 C 132.124 37.446,132.006 37.472,131.417 37.756 M126.917 39.423 C 126.500 39.623,126.486 39.646,126.833 39.562 C 127.306 39.446,127.836 39.176,127.583 39.179 C 127.492 39.181,127.192 39.290,126.917 39.423 M124.750 40.256 C 124.331 40.458,124.318 40.480,124.667 40.396 C 124.896 40.341,125.155 40.229,125.242 40.148 C 125.458 39.946,125.339 39.972,124.750 40.256 M47.333 40.929 C 47.333 41.042,48.199 41.356,48.282 41.274 C 48.319 41.236,48.122 41.125,47.842 41.028 C 47.562 40.930,47.333 40.886,47.333 40.929 M120.250 41.923 C 119.831 42.124,119.818 42.147,120.167 42.063 C 120.396 42.008,120.655 41.896,120.742 41.815 C 120.958 41.613,120.839 41.639,120.250 41.923 M51.333 42.584 C 51.333 42.669,52.203 43.052,52.848 43.251 C 53.069 43.319,53.212 43.334,53.167 43.285 C 53.039 43.146,51.333 42.494,51.333 42.584 M55.750 44.293 C 55.842 44.383,56.142 44.505,56.417 44.564 C 56.990 44.687,56.673 44.449,56.000 44.251 C 55.726 44.171,55.641 44.185,55.750 44.293 M112.542 44.353 C 112.244 44.439,112.000 44.546,112.000 44.591 C 112.000 44.712,112.891 44.481,113.075 44.312 C 113.257 44.145,113.263 44.145,112.542 44.353 M109.667 45.167 C 109.323 45.277,109.309 45.303,109.583 45.314 C 109.767 45.322,110.029 45.256,110.167 45.167 C 110.459 44.978,110.256 44.978,109.667 45.167 M107.750 45.667 C 107.325 45.849,107.763 45.849,108.333 45.667 C 108.668 45.559,108.685 45.532,108.417 45.528 C 108.233 45.526,107.933 45.588,107.750 45.667 M61.250 46.000 C 61.307 46.092,61.517 46.161,61.718 46.155 C 62.070 46.144,62.071 46.138,61.750 46.000 C 61.291 45.803,61.128 45.803,61.250 46.000 M106.333 46.000 L 105.917 46.133 106.365 46.150 C 106.612 46.159,106.860 46.092,106.917 46.000 C 107.034 45.811,106.925 45.811,106.333 46.000 M63.167 46.500 C 63.737 46.683,64.175 46.683,63.750 46.500 C 63.567 46.421,63.267 46.359,63.083 46.362 C 62.815 46.366,62.832 46.393,63.167 46.500 M104.167 46.500 C 103.832 46.607,103.815 46.634,104.083 46.638 C 104.267 46.641,104.567 46.579,104.750 46.500 C 105.175 46.317,104.737 46.317,104.167 46.500 M64.667 46.831 C 64.804 46.921,65.098 46.996,65.319 46.997 C 65.854 47.001,65.719 46.906,65.000 46.774 C 64.590 46.699,64.491 46.716,64.667 46.831 M102.417 46.833 C 101.955 46.951,101.949 46.962,102.333 46.978 C 102.563 46.987,102.862 46.922,103.000 46.833 C 103.284 46.650,103.137 46.650,102.417 46.833 M67.083 47.333 C 67.267 47.412,67.567 47.477,67.750 47.477 L 68.083 47.477 67.750 47.333 C 67.567 47.255,67.267 47.190,67.083 47.190 L 66.750 47.190 67.083 47.333 M99.833 47.333 C 99.498 47.441,99.482 47.468,99.750 47.472 C 99.933 47.474,100.233 47.412,100.417 47.333 C 100.841 47.151,100.403 47.151,99.833 47.333 M68.917 47.662 C 69.235 47.803,70.298 47.899,70.153 47.773 C 70.115 47.740,69.746 47.668,69.333 47.614 C 68.833 47.548,68.694 47.564,68.917 47.662 M97.667 47.667 C 97.097 47.787,97.095 47.790,97.583 47.800 C 97.858 47.805,98.233 47.745,98.417 47.667 C 98.817 47.494,98.485 47.494,97.667 47.667 M72.333 48.158 C 72.750 48.300,73.784 48.388,73.653 48.271 C 73.615 48.237,73.208 48.166,72.750 48.113 C 72.188 48.048,72.052 48.063,72.333 48.158 M93.833 48.167 L 93.250 48.289 93.833 48.295 C 94.154 48.298,94.604 48.240,94.833 48.167 L 95.250 48.033 94.833 48.039 C 94.604 48.041,94.154 48.099,93.833 48.167 M75.250 48.503 C 75.757 48.629,77.947 48.717,77.819 48.606 C 77.781 48.573,77.075 48.508,76.250 48.462 C 75.425 48.416,74.975 48.434,75.250 48.503 M90.167 48.500 L 89.083 48.609 90.167 48.618 C 90.763 48.623,91.475 48.570,91.750 48.500 L 92.250 48.373 91.750 48.382 C 91.475 48.387,90.763 48.440,90.167 48.500 M79.295 48.787 C 79.594 48.825,80.044 48.824,80.295 48.786 C 80.545 48.748,80.300 48.717,79.750 48.718 C 79.200 48.719,78.995 48.750,79.295 48.787 M86.455 48.787 C 86.750 48.824,87.275 48.824,87.621 48.788 C 87.967 48.752,87.725 48.722,87.083 48.721 C 86.442 48.721,86.159 48.750,86.455 48.787 " stroke="none" fill="#c8ecf1" fill-rule="evenodd"></path><path id="path4" d="M1.667 2.167 C 1.957 2.533,2.232 2.833,2.278 2.833 C 2.324 2.833,2.124 2.533,1.833 2.167 C 1.543 1.800,1.268 1.500,1.222 1.500 C 1.176 1.500,1.376 1.800,1.667 2.167 M239.292 7.124 C 240.140 7.154,241.527 7.154,242.375 7.124 C 243.223 7.094,242.529 7.069,240.833 7.069 C 239.137 7.069,238.444 7.094,239.292 7.124 M233.833 7.340 C 233.473 7.421,233.728 7.436,234.500 7.380 C 235.188 7.330,235.781 7.262,235.819 7.228 C 235.941 7.121,234.440 7.205,233.833 7.340 M246.181 7.227 C 246.219 7.261,246.963 7.328,247.833 7.378 C 248.919 7.439,249.181 7.424,248.667 7.329 C 247.912 7.191,246.051 7.114,246.181 7.227 M250.875 7.615 C 251.035 7.657,251.298 7.657,251.458 7.615 C 251.619 7.573,251.487 7.539,251.167 7.539 C 250.846 7.539,250.715 7.573,250.875 7.615 M6.667 8.250 C 6.978 8.571,7.270 8.833,7.315 8.833 C 7.361 8.833,7.144 8.571,6.833 8.250 C 6.522 7.929,6.230 7.667,6.185 7.667 C 6.139 7.667,6.356 7.929,6.667 8.250 M230.875 7.782 C 231.035 7.823,231.298 7.823,231.458 7.782 C 231.619 7.740,231.487 7.705,231.167 7.705 C 230.846 7.705,230.715 7.740,230.875 7.782 M252.377 7.786 C 252.631 7.825,253.006 7.824,253.211 7.784 C 253.416 7.744,253.208 7.713,252.750 7.714 C 252.292 7.716,252.124 7.748,252.377 7.786 M228.667 8.167 C 228.335 8.381,228.752 8.381,229.250 8.167 L 229.583 8.023 229.250 8.014 C 229.067 8.009,228.804 8.078,228.667 8.167 M255.347 8.062 C 255.385 8.096,255.792 8.167,256.250 8.220 C 256.812 8.285,256.948 8.270,256.667 8.175 C 256.250 8.033,255.216 7.945,255.347 8.062 M226.167 8.669 C 225.991 8.784,226.090 8.801,226.500 8.726 C 227.219 8.594,227.354 8.499,226.819 8.503 C 226.598 8.504,226.304 8.579,226.167 8.669 M259.014 8.560 C 259.052 8.593,259.458 8.663,259.917 8.716 C 260.453 8.778,260.631 8.761,260.417 8.668 C 260.098 8.530,258.869 8.435,259.014 8.560 M224.583 9.000 C 224.373 9.090,224.342 9.143,224.500 9.143 C 224.637 9.143,224.900 9.079,225.083 9.000 C 225.293 8.910,225.324 8.857,225.167 8.857 C 225.029 8.857,224.767 8.921,224.583 9.000 M261.833 9.000 C 262.063 9.073,262.400 9.133,262.583 9.133 C 262.847 9.133,262.830 9.106,262.500 9.000 C 262.271 8.927,261.933 8.867,261.750 8.867 C 261.486 8.867,261.503 8.894,261.833 9.000 M222.167 9.502 C 221.991 9.618,222.090 9.634,222.500 9.559 C 223.219 9.427,223.354 9.332,222.819 9.336 C 222.598 9.337,222.304 9.412,222.167 9.502 M264.542 9.448 C 264.702 9.490,264.965 9.490,265.125 9.448 C 265.285 9.406,265.154 9.372,264.833 9.372 C 264.512 9.372,264.381 9.406,264.542 9.448 M220.500 9.841 C 220.317 9.964,220.385 9.980,220.750 9.898 C 221.363 9.761,221.496 9.666,221.069 9.669 C 220.894 9.671,220.637 9.748,220.500 9.841 M266.833 9.833 C 267.403 10.016,267.841 10.016,267.417 9.833 C 267.233 9.755,266.933 9.692,266.750 9.695 C 266.482 9.699,266.498 9.726,266.833 9.833 M218.167 10.336 C 217.991 10.451,218.090 10.468,218.500 10.392 C 219.219 10.261,219.354 10.166,218.819 10.169 C 218.598 10.171,218.304 10.246,218.167 10.336 M269.181 10.228 C 269.219 10.262,269.550 10.335,269.917 10.391 C 270.381 10.461,270.482 10.446,270.250 10.341 C 269.930 10.196,269.037 10.102,269.181 10.228 M9.167 11.083 C 9.478 11.404,9.770 11.667,9.815 11.667 C 9.861 11.667,9.644 11.404,9.333 11.083 C 9.022 10.762,8.730 10.500,8.685 10.500 C 8.639 10.500,8.856 10.762,9.167 11.083 M216.583 10.667 C 216.373 10.757,216.342 10.810,216.500 10.810 C 216.637 10.810,216.900 10.745,217.083 10.667 C 217.293 10.576,217.324 10.523,217.167 10.523 C 217.029 10.523,216.767 10.588,216.583 10.667 M271.333 10.667 C 271.563 10.740,271.900 10.800,272.083 10.800 C 272.347 10.800,272.330 10.772,272.000 10.667 C 271.771 10.593,271.433 10.533,271.250 10.533 C 270.986 10.533,271.003 10.561,271.333 10.667 M214.250 11.167 C 213.825 11.349,214.263 11.349,214.833 11.167 C 215.168 11.059,215.185 11.032,214.917 11.028 C 214.733 11.026,214.433 11.088,214.250 11.167 M273.514 11.059 C 273.552 11.092,273.846 11.167,274.167 11.226 C 274.577 11.301,274.676 11.284,274.500 11.169 C 274.274 11.021,273.349 10.918,273.514 11.059 M212.667 11.500 C 212.332 11.607,212.315 11.634,212.583 11.638 C 212.767 11.641,213.067 11.579,213.250 11.500 C 213.675 11.317,213.237 11.317,212.667 11.500 M275.583 11.500 C 275.767 11.579,276.067 11.641,276.250 11.638 C 276.518 11.634,276.502 11.607,276.167 11.500 C 275.597 11.317,275.159 11.317,275.583 11.500 M10.417 12.500 C 10.775 12.867,11.105 13.167,11.151 13.167 C 11.197 13.167,10.941 12.867,10.583 12.500 C 10.225 12.133,9.895 11.833,9.849 11.833 C 9.803 11.833,10.059 12.133,10.417 12.500 M210.500 12.008 C 210.317 12.131,210.385 12.147,210.750 12.065 C 211.363 11.928,211.496 11.832,211.069 11.836 C 210.894 11.837,210.637 11.915,210.500 12.008 M277.681 11.893 C 277.719 11.926,277.975 12.003,278.250 12.065 C 278.615 12.147,278.683 12.131,278.500 12.008 C 278.275 11.855,277.513 11.749,277.681 11.893 M208.917 12.333 C 208.492 12.516,208.930 12.516,209.500 12.333 C 209.835 12.226,209.851 12.199,209.583 12.195 C 209.400 12.192,209.100 12.255,208.917 12.333 M279.500 12.333 C 280.070 12.516,280.508 12.516,280.083 12.333 C 279.900 12.255,279.600 12.192,279.417 12.195 C 279.149 12.199,279.165 12.226,279.500 12.333 M206.833 12.841 C 206.651 12.964,206.718 12.980,207.083 12.898 C 207.696 12.761,207.829 12.666,207.403 12.669 C 207.227 12.671,206.971 12.748,206.833 12.841 M281.347 12.726 C 281.385 12.759,281.679 12.834,282.000 12.892 C 282.410 12.968,282.509 12.951,282.333 12.836 C 282.107 12.688,281.182 12.585,281.347 12.726 M205.417 13.167 C 205.207 13.257,205.176 13.310,205.333 13.310 C 205.471 13.310,205.733 13.245,205.917 13.167 C 206.127 13.076,206.158 13.023,206.000 13.023 C 205.862 13.023,205.600 13.088,205.417 13.167 M283.333 13.167 C 283.903 13.349,284.341 13.349,283.917 13.167 C 283.733 13.088,283.433 13.026,283.250 13.028 C 282.982 13.032,282.998 13.059,283.333 13.167 M203.333 13.674 C 203.151 13.798,203.218 13.813,203.583 13.732 C 204.196 13.595,204.329 13.499,203.903 13.503 C 203.727 13.504,203.471 13.581,203.333 13.674 M285.181 13.560 C 285.219 13.593,285.475 13.670,285.750 13.732 C 286.115 13.813,286.183 13.798,286.000 13.674 C 285.775 13.522,285.013 13.416,285.181 13.560 M12.583 14.833 C 13.128 15.383,13.610 15.833,13.656 15.833 C 13.702 15.833,13.294 15.383,12.750 14.833 C 12.206 14.283,11.723 13.833,11.677 13.833 C 11.631 13.833,12.039 14.283,12.583 14.833 M201.917 14.000 C 201.707 14.090,201.676 14.143,201.833 14.143 C 201.971 14.143,202.233 14.079,202.417 14.000 C 202.627 13.910,202.658 13.857,202.500 13.857 C 202.362 13.857,202.100 13.921,201.917 14.000 M286.917 14.000 C 287.100 14.079,287.362 14.143,287.500 14.143 C 287.658 14.143,287.627 14.090,287.417 14.000 C 287.233 13.921,286.971 13.857,286.833 13.857 C 286.676 13.857,286.707 13.910,286.917 14.000 M288.681 14.393 C 288.719 14.426,288.975 14.503,289.250 14.565 C 289.615 14.647,289.683 14.631,289.500 14.508 C 289.275 14.355,288.513 14.249,288.681 14.393 M198.583 14.833 C 198.373 14.924,198.342 14.977,198.500 14.977 C 198.637 14.977,198.900 14.912,199.083 14.833 C 199.293 14.743,199.324 14.690,199.167 14.690 C 199.029 14.690,198.767 14.755,198.583 14.833 M290.417 14.833 C 290.600 14.912,290.862 14.977,291.000 14.977 C 291.158 14.977,291.127 14.924,290.917 14.833 C 290.733 14.755,290.471 14.690,290.333 14.690 C 290.176 14.690,290.207 14.743,290.417 14.833 M292.181 15.227 C 292.219 15.259,292.475 15.337,292.750 15.398 C 293.115 15.480,293.183 15.464,293.000 15.341 C 292.775 15.189,292.013 15.082,292.181 15.227 M193.500 16.174 C 193.317 16.298,193.385 16.313,193.750 16.232 C 194.363 16.095,194.496 15.999,194.069 16.003 C 193.894 16.004,193.637 16.081,193.500 16.174 M295.514 16.060 C 295.552 16.093,295.808 16.170,296.083 16.232 C 296.448 16.313,296.516 16.298,296.333 16.174 C 296.108 16.022,295.347 15.916,295.514 16.060 M192.250 16.500 C 192.040 16.590,192.009 16.643,192.167 16.643 C 192.304 16.643,192.567 16.579,192.750 16.500 C 192.960 16.410,192.991 16.357,192.833 16.357 C 192.696 16.357,192.433 16.421,192.250 16.500 M297.083 16.500 C 297.267 16.579,297.529 16.643,297.667 16.643 C 297.824 16.643,297.793 16.590,297.583 16.500 C 297.400 16.421,297.137 16.357,297.000 16.357 C 296.842 16.357,296.873 16.410,297.083 16.500 M189.250 17.333 C 189.040 17.424,189.009 17.477,189.167 17.477 C 189.304 17.477,189.567 17.412,189.750 17.333 C 189.960 17.243,189.991 17.190,189.833 17.190 C 189.696 17.190,189.433 17.255,189.250 17.333 M300.417 17.333 C 300.600 17.412,300.862 17.477,301.000 17.477 C 301.158 17.477,301.127 17.424,300.917 17.333 C 300.733 17.255,300.471 17.190,300.333 17.190 C 300.176 17.190,300.207 17.243,300.417 17.333 M187.500 17.841 C 187.317 17.964,187.385 17.980,187.750 17.898 C 188.363 17.761,188.496 17.666,188.069 17.669 C 187.894 17.671,187.637 17.748,187.500 17.841 M303.583 18.167 C 303.767 18.245,304.029 18.310,304.167 18.310 C 304.324 18.310,304.293 18.257,304.083 18.167 C 303.900 18.088,303.637 18.023,303.500 18.023 C 303.342 18.023,303.373 18.076,303.583 18.167 M184.667 18.674 C 184.484 18.798,184.552 18.813,184.917 18.732 C 185.529 18.595,185.663 18.499,185.236 18.503 C 185.060 18.504,184.804 18.581,184.667 18.674 M308.181 19.393 C 308.219 19.426,308.475 19.503,308.750 19.565 C 309.115 19.647,309.183 19.631,309.000 19.508 C 308.775 19.355,308.013 19.249,308.181 19.393 M18.417 20.667 C 18.961 21.217,19.444 21.667,19.490 21.667 C 19.535 21.667,19.128 21.217,18.583 20.667 C 18.039 20.117,17.556 19.667,17.510 19.667 C 17.465 19.667,17.872 20.117,18.417 20.667 M20.417 22.500 C 20.868 22.958,21.275 23.333,21.321 23.333 C 21.367 23.333,21.035 22.958,20.583 22.500 C 20.132 22.042,19.725 21.667,19.679 21.667 C 19.633 21.667,19.965 22.042,20.417 22.500 M22.036 23.919 C 22.377 24.275,22.683 24.533,22.716 24.492 C 22.749 24.450,22.470 24.159,22.096 23.844 L 21.417 23.271 22.036 23.919 M165.750 24.923 C 165.333 25.123,165.319 25.146,165.667 25.062 C 166.139 24.946,166.670 24.676,166.417 24.679 C 166.325 24.681,166.025 24.790,165.750 24.923 M327.583 24.833 C 327.767 24.912,328.029 24.977,328.167 24.977 C 328.324 24.977,328.293 24.924,328.083 24.833 C 327.900 24.755,327.637 24.690,327.500 24.690 C 327.342 24.690,327.373 24.743,327.583 24.833 M163.417 25.756 C 163.000 25.957,162.986 25.980,163.333 25.895 C 163.806 25.779,164.336 25.509,164.083 25.513 C 163.992 25.514,163.692 25.623,163.417 25.756 M330.500 25.642 C 330.637 25.722,330.975 25.837,331.250 25.896 C 331.570 25.966,331.660 25.952,331.500 25.858 C 331.362 25.778,331.025 25.663,330.750 25.604 C 330.430 25.534,330.340 25.548,330.500 25.642 M161.083 26.589 C 160.667 26.790,160.653 26.813,161.000 26.728 C 161.472 26.613,162.003 26.342,161.750 26.346 C 161.658 26.347,161.358 26.457,161.083 26.589 M333.333 26.492 C 333.471 26.585,333.727 26.663,333.903 26.664 C 334.329 26.668,334.196 26.572,333.583 26.435 C 333.218 26.353,333.151 26.369,333.333 26.492 M388.833 26.853 C 387.046 26.928,385.433 27.021,385.250 27.059 C 384.822 27.149,391.295 26.997,394.667 26.838 L 397.250 26.717 394.667 26.717 C 393.246 26.717,390.621 26.779,388.833 26.853 M26.000 27.216 C 26.000 27.258,26.353 27.582,26.784 27.936 C 27.215 28.289,27.514 28.491,27.448 28.384 C 27.308 28.158,26.000 27.102,26.000 27.216 M158.750 27.423 C 158.333 27.623,158.319 27.646,158.667 27.562 C 159.139 27.446,159.670 27.176,159.417 27.179 C 159.325 27.181,159.025 27.290,158.750 27.423 M379.833 27.333 L 378.750 27.442 380.083 27.453 C 380.817 27.458,382.129 27.408,383.000 27.342 L 384.583 27.221 382.750 27.222 C 381.742 27.223,380.429 27.273,379.833 27.333 M374.083 27.686 C 373.075 27.762,372.100 27.856,371.917 27.895 C 371.386 28.007,375.811 27.805,376.917 27.667 L 377.917 27.542 376.917 27.545 C 376.367 27.546,375.092 27.609,374.083 27.686 M339.333 28.250 C 340.094 28.543,340.394 28.539,339.750 28.244 C 339.475 28.118,339.137 28.017,339.000 28.020 C 338.862 28.023,339.012 28.126,339.333 28.250 M368.250 28.167 L 367.417 28.281 368.417 28.289 C 368.967 28.294,369.867 28.241,370.417 28.173 L 371.417 28.049 370.250 28.051 C 369.608 28.052,368.708 28.104,368.250 28.167 M363.750 28.589 L 362.083 28.800 363.833 28.713 C 364.796 28.665,365.883 28.569,366.250 28.498 L 366.917 28.370 366.167 28.374 C 365.754 28.377,364.667 28.474,363.750 28.589 M28.243 29.037 C 28.522 29.287,28.816 29.493,28.897 29.496 C 28.979 29.498,28.829 29.337,28.564 29.137 C 27.826 28.579,27.682 28.534,28.243 29.037 M154.250 29.089 C 153.833 29.290,153.819 29.313,154.167 29.228 C 154.639 29.113,155.170 28.842,154.917 28.846 C 154.825 28.847,154.525 28.957,154.250 29.089 M341.833 28.975 C 341.971 29.056,342.308 29.170,342.583 29.230 C 342.903 29.299,342.993 29.285,342.833 29.191 C 342.696 29.111,342.358 28.996,342.083 28.937 C 341.763 28.868,341.673 28.881,341.833 28.975 M359.500 29.000 L 358.917 29.123 359.583 29.128 C 359.950 29.131,360.662 29.077,361.167 29.007 L 362.083 28.880 361.083 28.879 C 360.533 28.878,359.821 28.932,359.500 29.000 M356.000 29.353 C 355.313 29.431,354.637 29.528,354.500 29.568 C 354.096 29.685,357.186 29.470,357.917 29.330 L 358.583 29.203 357.917 29.207 C 357.550 29.208,356.688 29.274,356.000 29.353 M344.667 29.809 C 344.804 29.889,345.142 30.004,345.417 30.063 C 345.737 30.132,345.827 30.119,345.667 30.025 C 345.529 29.944,345.192 29.830,344.917 29.770 C 344.597 29.701,344.507 29.715,344.667 29.809 M352.083 29.833 L 351.583 29.961 352.167 29.968 C 352.488 29.972,353.087 29.915,353.500 29.842 L 354.250 29.708 353.417 29.707 C 352.958 29.707,352.358 29.763,352.083 29.833 M348.917 30.190 C 347.302 30.394,347.161 30.508,348.667 30.392 C 350.102 30.282,351.463 30.030,350.583 30.038 C 350.308 30.040,349.558 30.109,348.917 30.190 M346.644 30.423 C 346.953 30.557,347.253 30.664,347.311 30.661 C 347.528 30.649,346.574 30.179,346.333 30.179 C 346.196 30.179,346.336 30.289,346.644 30.423 M31.000 31.061 C 31.000 31.106,31.225 31.304,31.500 31.500 C 31.775 31.696,32.000 31.819,32.000 31.773 C 32.000 31.727,31.775 31.529,31.500 31.333 C 31.225 31.138,31.000 31.015,31.000 31.061 M32.167 31.894 C 32.167 31.940,32.392 32.138,32.667 32.333 C 32.942 32.529,33.167 32.652,33.167 32.606 C 33.167 32.560,32.942 32.362,32.667 32.167 C 32.392 31.971,32.167 31.848,32.167 31.894 M145.250 32.423 C 144.833 32.623,144.819 32.646,145.167 32.562 C 145.639 32.446,146.170 32.176,145.917 32.179 C 145.825 32.181,145.525 32.290,145.250 32.423 M138.583 34.923 C 138.167 35.123,138.153 35.146,138.500 35.062 C 138.972 34.946,139.503 34.676,139.250 34.679 C 139.158 34.681,138.858 34.790,138.583 34.923 M37.667 35.556 C 37.667 35.669,38.864 36.358,38.936 36.286 C 38.969 36.253,38.697 36.058,38.331 35.852 C 37.966 35.647,37.667 35.514,37.667 35.556 M131.917 37.423 C 131.500 37.623,131.486 37.646,131.833 37.562 C 132.306 37.446,132.836 37.176,132.583 37.179 C 132.492 37.181,132.192 37.290,131.917 37.423 M129.750 38.256 C 129.331 38.458,129.318 38.480,129.667 38.396 C 129.896 38.341,130.155 38.229,130.242 38.148 C 130.458 37.946,130.339 37.972,129.750 38.256 M125.375 39.839 C 124.817 40.063,124.921 40.177,125.500 39.975 C 125.775 39.879,126.000 39.771,126.000 39.734 C 126.000 39.635,125.797 39.669,125.375 39.839 M123.208 40.672 C 122.650 40.896,122.755 41.010,123.333 40.808 C 123.608 40.712,123.833 40.604,123.833 40.567 C 123.833 40.468,123.630 40.502,123.208 40.672 M112.833 44.174 C 112.651 44.298,112.718 44.313,113.083 44.232 C 113.696 44.095,113.829 43.999,113.403 44.003 C 113.227 44.004,112.971 44.081,112.833 44.174 M57.667 44.809 C 57.804 44.889,58.142 45.004,58.417 45.063 C 58.737 45.132,58.827 45.119,58.667 45.025 C 58.529 44.944,58.192 44.830,57.917 44.770 C 57.597 44.701,57.507 44.715,57.667 44.809 M110.500 44.833 C 110.157 44.943,110.142 44.969,110.417 44.981 C 110.600 44.989,110.862 44.922,111.000 44.833 C 111.292 44.645,111.089 44.645,110.500 44.833 M59.250 45.333 C 59.433 45.412,59.696 45.477,59.833 45.477 C 59.991 45.477,59.960 45.424,59.750 45.333 C 59.567 45.255,59.304 45.190,59.167 45.190 C 59.009 45.190,59.040 45.243,59.250 45.333 M62.014 46.060 C 62.052 46.093,62.308 46.170,62.583 46.232 C 62.948 46.313,63.016 46.298,62.833 46.174 C 62.608 46.022,61.847 45.916,62.014 46.060 M105.083 46.167 C 104.659 46.349,105.097 46.349,105.667 46.167 C 106.002 46.059,106.018 46.032,105.750 46.028 C 105.567 46.026,105.267 46.088,105.083 46.167 M64.014 46.559 C 64.052 46.592,64.346 46.667,64.667 46.726 C 65.077 46.801,65.176 46.784,65.000 46.669 C 64.774 46.521,63.849 46.418,64.014 46.559 M66.000 47.000 C 66.570 47.183,67.008 47.183,66.583 47.000 C 66.400 46.921,66.100 46.859,65.917 46.862 C 65.649 46.866,65.665 46.893,66.000 47.000 M101.000 47.000 C 100.670 47.106,100.653 47.133,100.917 47.133 C 101.100 47.133,101.438 47.073,101.667 47.000 C 101.997 46.894,102.014 46.867,101.750 46.867 C 101.567 46.867,101.229 46.927,101.000 47.000 M99.000 47.333 C 98.435 47.452,98.432 47.456,98.917 47.461 C 99.192 47.464,99.604 47.407,99.833 47.333 C 100.380 47.158,99.831 47.158,99.000 47.333 M68.208 47.448 C 68.369 47.490,68.631 47.490,68.792 47.448 C 68.952 47.406,68.821 47.372,68.500 47.372 C 68.179 47.372,68.048 47.406,68.208 47.448 M70.583 47.833 C 70.858 47.903,71.271 47.961,71.500 47.961 C 71.872 47.961,71.863 47.947,71.417 47.833 C 71.142 47.763,70.729 47.706,70.500 47.706 C 70.128 47.706,70.137 47.720,70.583 47.833 M95.667 47.839 C 95.398 47.929,95.575 47.944,96.167 47.883 C 96.671 47.831,97.115 47.761,97.153 47.727 C 97.286 47.611,96.080 47.701,95.667 47.839 M74.042 48.286 C 74.294 48.324,74.706 48.324,74.958 48.286 C 75.210 48.248,75.004 48.217,74.500 48.217 C 73.996 48.217,73.790 48.248,74.042 48.286 M91.961 48.287 C 92.261 48.325,92.711 48.324,92.961 48.286 C 93.212 48.248,92.967 48.217,92.417 48.218 C 91.867 48.219,91.662 48.250,91.961 48.287 M75.875 48.448 C 76.035 48.490,76.298 48.490,76.458 48.448 C 76.619 48.406,76.487 48.372,76.167 48.372 C 75.846 48.372,75.715 48.406,75.875 48.448 M79.417 48.673 C 81.173 48.801,86.105 48.876,85.986 48.773 C 85.948 48.740,84.079 48.676,81.833 48.632 C 79.475 48.585,78.454 48.603,79.417 48.673 M86.875 48.623 C 87.310 48.657,88.023 48.657,88.458 48.623 C 88.894 48.588,88.537 48.560,87.667 48.560 C 86.796 48.560,86.440 48.588,86.875 48.623 " stroke="none" fill="#d8f3f5" fill-rule="evenodd"></path></g></svg>